<?xml version="1.0" encoding="iso-8859-1"?>
<!-- Generator: Adobe Illustrator 19.0.0, SVG Export Plug-In . SVG Version: 6.00 Build 0)  -->
<svg version="1.1" id="Capa_1" xmlns="http://www.w3.org/2000/svg" xmlns:xlink="http://www.w3.org/1999/xlink" x="0px" y="0px"
	 viewBox="0 0 512.001 512.001" style="enable-background:new 0 0 512.001 512.001;" xml:space="preserve">
<path style="fill:#F13636;" d="M97.465,274.262c-1.456-2.981,1.296-10.917,1.954-14.544c1.607-8.852,3.009-17.911,6.798-26.148
	c5.371-11.677,17.27-14.26,23.972-23.994c6.584-9.562,3.366-23.339,17.664-26.849c9.725-2.387,24.234,3.068,32.504-3.216
	c4.729-3.593,7.309-9.861,12.186-13.699c4.87-3.832,12.094-6.052,18.245-6.718c6.18-0.669,11.256,1.509,17.16,2.537
	c6.313,1.099,11.947-0.706,17.814-3.096c12.148-4.948,21.338-7.374,32.988,0.037c4.515,2.872,7.026,6.108,12.886,6.069
	c6.158-0.04,11.694-3.533,17.523-5.146c11.135-3.082,16.216,6.927,25.798,10.795c9.704,3.918,19.318-4.555,29.234-0.15
	c7.837,3.482,10.677,13.238,15.852,19.387c4.744,5.638,10.715,6.087,17.254,9.004c10.05,4.483,12.947,15.522,14.646,25.502
	c2.572,15.103,0.281,33.608-13.077,43.446c-11.603,8.546-29.875,4.331-41.98-0.919c-18.333-7.95-37.985-13.663-57.516-18.169
	c-25.178-5.809-49.659-1.255-75.041-0.462c-20.334,0.635-38.787,1.683-57.961,9.711c-16.656,6.974-28.32,18.956-42.908,28.864
	C115.141,292.159,92.299,304.756,97.465,274.262z"/>
<path style="fill:#E81D1D;" d="M388.947,264.443c-2.234-10.287-6.204-20.114-12.709-28.484
	c-19.849-25.535-47.977-13.591-75.198-13.212c-10.179,0.142-18.523-1.592-26.931-7.65c-6.815-4.911-12.61-10.791-20.53-14.043
	c-15.081-6.192-32.053,2.812-46.658-6.052c-8.043-4.881-13.999-12.49-23.488-15.015c-8.801-2.342-23.908-2.322-32.236,1.327
	c-11.722,5.135-19.069,16.239-23.315,27.762c-1.386,3.761-1.992,9.582-4.542,12.852c-2.224,2.851-4.588,2.769-7.623,4.3
	c-8.205,4.136-12.309,10.466-14.127,19.159c-2.694,12.884-8.075,28.962-6.712,42.18c3.024,29.321,36.376-8.213,45.062-13.056
	c20.445-11.398,44.398-22.209,67.649-26.035c25.316-4.166,50.981-3.055,76.343-0.683c21.867,2.045,43.561,7.057,64.728,12.789
	C361.594,264.084,376.826,273.513,388.947,264.443z"/>
<path style="fill:#8BEB6A;" d="M233.904,75.806c-8.966-0.079-19.713,8.319-26.744,13.131c-14.033,9.603-27.899,20.751-39.471,33.248
	c-9.827,10.612-20.373,23.444-26.683,36.505c-3.074,6.361-5.393,13.072-8.345,19.493c-2.175,4.73-6.635,11.548-6.188,16.973
	c4.559,2.026,13.138-4.772,17.348-6.814c6.571-3.187,13.415-7.687,20.387-9.786c5.129-1.544,8.469-0.129,13.599,0.143
	c7.004,0.371,10.758-3.264,15.206-8.316c7.596-8.629,14.215-12.239,26.277-9.336c5.338,1.285,9.674,4.384,15.378,3.483
	c6.841-1.081,10.463-7.027,16.601-9.605c9.226-3.874,18.95,0.091,27.111,4.72c6.165,3.496,9.549,5.661,16.855,3.504
	c5.232-1.544,10.521-6.253,16.243-5.785c4.186,0.343,7.108,3.753,10.365,5.924c4.702,3.134,9.896,5.033,15.596,5.089
	c4.76,0.047,9.487-1.344,14.223-0.125c3.335,0.858,6.54,3.054,9.956,4.035c5.155-9.065-3.263-21.513-8.696-28.364
	c-10.579-13.341-21.915-25.408-34.046-37.327c-10.195-10.017-24.056-20.837-36.897-27.261c-6.836-3.42-14.75-4.167-22.239-4.725
	C251.537,74,244.048,77.156,233.904,75.806z"/>
<path style="fill:#6BD046;" d="M237.004,76.323c-7.624,2.993-10.302,23.509-9.749,30.492c0.76,9.591,4.9,18.396,13.775,22.738
	c6.718,3.287,14.716,2.854,21.406,6.165c11.455,5.669,5.551,12.895-3.062,17.362c-9.184,4.763-20.525,5.212-30.716,6.167
	c-7.932,0.743-17.117-3.049-24.597-0.537c-9.679,3.251-18.518,12.112-27.266,17.341c-9.357,5.593-15.878,2.49-25.664,4.185
	c-6.677,1.156-12.205,11.577-18.34,10.952c-1.797-9.656,4.141-22.247,8.399-30.626c7.063-13.899,17.839-26.087,28.603-37.221
	c11.4-11.792,22.682-22.51,35.828-32.321C214.64,84.289,222.87,82.238,237.004,76.323z"/>
<path style="fill:#F8F8F9;" d="M371.768,266.542c-19.548-5.073-39.518-9.06-59.312-13.383c-13.719-2.996-28.214-4.252-42.199-5.616
	c-15.898-1.55-32.074-3.415-48.038-1.877c-28.539,2.75-52.595,12.568-77.607,26.038c-13.116,7.063-28.507,11.47-33.15,26.297
	c-11.539,36.844-11.855,79.705,1.375,116.549c7.718,21.493,21.681,40.323,40.474,53.267c5.928,4.083,12.438,5.722,18.357,9.561
	c7.396,4.796,14.518,9.648,22.823,12.8c18.243,6.923,36.006,11.402,55.408,13.059c19.222,1.642,41.553,1.077,59.908-5.523
	c22.563-8.113,42.343-21.301,60.303-37.105c25.153-22.133,35.824-52.951,42.308-85.06c2.84-14.064,2.708-27.454,1.446-41.681
	c-1.015-11.444-1.704-23.098-5.629-34.004c-3.034-8.428-8.046-21.857-15.924-26.836C386.67,269.463,377.626,269.237,371.768,266.542
	z"/>
<g>
	<path style="fill:#EEF0F1;" d="M397.454,273.08c-22.865,34.445-79.733,18.028-114.244,21.853
		c-42.437,4.704-84.514,30.364-96.169,73.369c-7.971,29.409-1.254,53.544,19.26,75.704c7.329,7.917,33.671,26.267,28.126,40.337
		c-4.545,11.532-24.138,10.29-33.506,8.96c-11.954-1.697-26.61-10.625-36.145-17.96c-13.057-10.045-22.126-22.825-33.323-34.636
		c-21.324-22.496-27.767-55.14-28.668-85.08c-0.401-13.327,1.464-26.578,3.713-39.679c1.246-7.26,1.883-15.023,5.944-21.395
		c10.955-17.187,40.565-27.695,58.688-33.879c30.695-10.473,63.337-14.508,95.714-13.187c27.814,1.135,55.676,7.862,82.945,13.129
		C355.828,261.783,392.002,264.317,397.454,273.08z"/>
	<path style="fill:#EEF0F1;" d="M242.933,399.563c-1.201,22.034,23.999,30.127,41.882,24.514
		c19.681-6.177,40.941-19.018,57.133-31.897c3.649-2.902,28.277-21.229,13.5-21.78c-4.818-0.179-11.415,4.91-15.676,6.795
		c-4.694,2.077-9.493,3.55-14.285,5.357c-8.378,3.158-16.26,7.359-24.469,10.846C285.677,399.915,262.181,412.915,242.933,399.563z"
		/>
</g>
<path style="fill:#FB743C;" d="M240.707,339.176c-11.539,16.105-13.658,58.661,13.109,61.503
	c14.492,1.539,27.104-3.708,40.512-8.464c16.061-5.697,30.947-15.35,45.35-24.374c5.82-3.646,11.262-7.746,17.258-11.137
	c5.524-3.124,11.428-6.012,16.034-10.474c15.634-15.149-19.28-10.908-25.343-10.661c-18.241,0.743-35.811,0.475-53.975-1.174
	C276.024,332.796,257.75,332.653,240.707,339.176z"/>
<path style="fill:#F45C28;" d="M367.675,338.118c-5.285,3.097-10.871,5.46-16.575,7.809c-16.846,6.936-34.21,14.163-51.854,18.785
	c-15.112,3.958-38.105,9.248-49.826-5.11c-1.975-2.419-5.07-12.172-9.397-11.627c-5.315,0.669-6.139,9.539-6.025,13.183
	c0.374,11.957,5.895,23.112,12.615,32.735c2.536,3.632,4.984,7.105,9.519,8.144c5.175,1.185,12.479-0.164,17.59-1.047
	c9.232-1.594,17.664-6.761,25.923-10.935c9.591-4.848,18.977-10.347,28.204-15.862c6.998-4.182,13.574-9.015,20.487-13.328
	c5.618-3.505,11.975-6.26,17.328-10.125C370.62,347.162,377.252,334.944,367.675,338.118z"/>
<path d="M415.432,256.02c4.517-14.45,7.457-32.326,1.44-46.716c-2.36-5.645-5.945-10.725-10.796-14.49
	c-6.394-4.962-14.233-4.726-19.511-10.607c-32.531-46.224-70.636-115.539-133.979-115.06c7.708-14.328,14.616-32.162,13.801-47.453
	c-0.699-13.129-11.589-25.438-25.486-20.631c-14.52,5.022-21.682,23.172-21.111,37.425c0.556,13.89,6.857,24.262,16.676,32.271
	c-30.091,5.704-54.957,25.91-73.676,49.59c-10.732,13.576-20.068,28.265-27.77,43.764c-7.647,15.386-12.02,31.112-16.236,47.612
	c-2.167,2.255-4.565,4.477-7.269,7.064c-10.564,10.108-15.333,24.313-17.317,38.465c-1.625,11.585-6.16,33.609,3.695,42.789
	c1.75,1.63,3.532,2.624,5.328,3.142c-6.439,22.26-9.883,44.076-6.863,67.335c2.79,21.485,9.716,42.386,20.627,61.128
	c20.705,35.564,55.882,62.638,95.34,74.136c79.759,23.24,167.888-20.66,196.484-98.525c15.474-42.136,14.627-92.421-4.293-133.447
	C409.701,269.464,413.26,262.969,415.432,256.02z M238.978,15.237c7.034-7.675,16.882-3.471,17.9,6.458
	c0.577,5.634-1.482,11.716-3.086,17.062c-2.896,9.65-6.857,18.779-11.016,27.89C231.241,52.417,225.737,29.685,238.978,15.237z
	 M171.06,128.619c19.375-23.979,45.772-45.41,77.743-47.532c52.698-3.498,79.552,42.565,108.028,81.332
	c-2.325-0.447-4.761-0.688-7.358-0.63c-3.835,0.086-7.293,1.596-11.077,0.992c-3.942-0.63-7.187-3.492-10.873-5.152
	c-6.93-3.12-14.617-4.645-22.219-4.277c-8.303,0.402-15.074,4.734-22.772,0.343c-6.664-3.801-13.114-6.471-20.888-6.824
	c-6.464-0.293-12.965,1.057-18.808,3.816c-5.447,2.572-7.714,5.145-14.428,3.922c-3.71-0.676-7.174-1.962-11.026-2.139
	c-6.772-0.312-13.686,1.072-19.824,3.957c-3.042,1.43-5.835,3.166-8.456,5.281c-3.101,2.502-5.386,6.75-8.546,8.974
	c-5.896,4.151-15.348,1.033-22.167,2.504c-6.887,1.486-13.46,4.81-18.815,9.379c-2.006,1.712-3.776,3.577-5.363,5.571
	C143.623,166.641,156.96,146.069,171.06,128.619z M104.288,270.431c1.004-14.758,4.097-30.899,15.048-41.684
	c4.483-4.415,9.861-7.801,13.594-12.959c4.15-5.732,5.488-12.908,9.856-18.509c4.937-6.331,12.332-10.481,20.313-11.459
	c6.351-0.778,12.852,0.574,19.047-1.528c4.865-1.651,7.59-5.176,11.103-8.634c6.138-6.042,13.877-9.615,22.611-9.247
	c6.814,0.288,13.113,4.309,20.029,3.174c6.918-1.135,11.935-6.68,18.919-8.016c13.993-2.676,23.285,10.426,36.877,8.355
	c7.34-1.118,13.627-3.46,21.25-2.101c7.741,1.38,12.801,6.136,19.729,9.001c6.125,2.533,10.672-0.87,16.809-1.231
	c10.382-0.611,19.223,7.071,25.068,14.817c3.231,4.281,5.447,8.509,10.693,10.523c7.425,2.85,13.254,2.605,18.012,10.451
	c7.673,12.652,4.212,34.749-2.564,47.41c-8.655,16.173-37.601,0.191-50.808-3.653c-16.217-4.721-32.686-8.65-49.363-11.358
	c-31.712-5.149-64.298-6.205-95.934-0.302c-14.87,2.189-29.502,6.349-42.95,12.02c-1.449,0.611-2.88,1.253-4.303,1.909
	c-17.526,7.367-33.961,17.604-44.632,31.906c-0.503,0.304-1.003,0.573-1.495,0.769C100.864,294.197,103.912,275.955,104.288,270.431
	z M401.364,387.287c-9.185,36.839-31.437,69.006-63.914,88.991c-66.537,40.945-154.059,24.664-200.971-37.964
	c-27.925-37.28-38.825-90.43-25.735-135.501c8.393-2.908,16.491-12.893,22.316-17.459c13.373-10.482,27.701-18.61,42.773-24.58
	c13.948-4.333,28.325-7.176,42.858-8.768c39.283-4.304,78.768,1.217,116.69,11.652c8.779,2.416,17.487,5.094,26.125,7.974
	c8.801,2.934,17.918,7.393,27.343,7.612c1.601,0.037,3.116-0.089,4.57-0.323C405.811,313.997,410.506,350.62,401.364,387.287z"/>
<path d="M380.664,331.917c-13.812-1.784-27.664-2.811-41.533-3.266c3.517-4.877,4.918-11.225,0.671-16.064
	c-0.123-0.14-0.263-0.268-0.393-0.403c-2.213-3.545-6.018-6.024-10.715-6.087c-2.566-0.035-4.98,0.666-7.046,1.873
	c-0.9,0.3-1.761,0.683-2.56,1.162c-5.463,3.273-5.971,9.236-3.851,14.384c0.078,0.943,0.217,1.845,0.413,2.666
	c0.185,0.776,0.45,1.51,0.755,2.217c-6.33,0.053-12.661,0.191-18.991,0.424c-12.962-0.559-25.907-0.328-38.873,0.88
	c-10.649,0.992-19.913,3.31-25.749,13.08c-10.888,18.226-4.788,44.345,10.405,58.271c8.462,7.757,18.556,11.54,29.826,8.286
	c13.493-3.896,26.873-10.511,39.383-16.791c25.655-12.879,53.845-28.877,71.974-51.664
	C387.382,337.111,385.335,332.52,380.664,331.917z M260.012,397.899c-17.282-6.398-25.236-30.42-18.98-46.76
	c3.497-9.132,12.222-11.471,21.132-12.492c2.138-0.055,4.275-0.067,6.413-0.102c-7.534,6.163-12.279,15.123-12.264,25.808
	c0.018,12.423,7.945,26.169,19.206,32.508C269.841,398.65,264.296,399.485,260.012,397.899z M281.73,394.594
	c-22.439-7.691-25.231-42.711-6.924-56.147c6.512-0.049,13.022,0.007,19.53,0.113c-11.728,15.405-14.58,38.779,2.155,49.336
	C292.553,389.638,287.276,392.325,281.73,394.594z M302.188,385.309c-18.452-9.099-14.23-32.922-2.111-46.649
	c5.372,0.12,10.743,0.291,16.113,0.486c-6.762,12.123-9.173,30.63,2.38,38.027C313.172,380.008,307.725,382.754,302.188,385.309z
	 M325.246,373.642c-0.211,0.116-0.428,0.222-0.639,0.338c-13.125-5.757-10.144-23.983-3.297-34.63
	c5.25,0.21,10.499,0.48,15.749,0.735c-3.31,8.597-3.489,17.923,1.737,25.766C334.311,368.554,329.768,371.14,325.246,373.642z
	 M343.345,363.06c-4.989-6.856-4.358-15.168-1.136-22.735c9.25,0.47,18.499,0.973,27.747,1.497
	C362.201,350.103,353.003,356.951,343.345,363.06z"/>
<path d="M182.75,351.371c13.89,11.08,30.2-6.69,25.262-21.254c-2.373-6.999-9.444-11.853-16.875-10.985
	c-6.203,0.724-10.836,5.455-12.615,11.18c-0.284,0.43-0.584,0.846-0.824,1.314C174.264,338.31,177.125,346.884,182.75,351.371z"/>
<path d="M345.176,387.317c-5.676,1.97-11.44,3.653-17.19,5.392c-6.077,1.838-4.353,10.553,1.026,10.81
	c-6.876,26.99-23.239,49.893-54.252,50.957c-31.659,1.087-66.347-13.981-74.133-46.86c0.416-0.163,0.842-0.32,1.253-0.487
	c2.907-1.182,4.963-3.867,4.071-7.148c0.3-3.271-2.436-6.902-6.254-5.567c-6.27,2.192-12.743,4.432-18.6,7.595
	c-7.266,3.925-0.792,15.022,6.476,11.079c1.546-0.839,3.179-1.562,4.834-2.252c2.743,15.706,9.396,29.77,22.66,39.885
	c16.523,12.601,39.251,17.183,59.693,16.382c36.144-1.417,64.013-30.885,66.215-66.538c2.44-0.648,4.881-1.289,7.342-1.86
	C355.749,396.981,352.359,384.824,345.176,387.317z"/>
<g>
</g>
<g>
</g>
<g>
</g>
<g>
</g>
<g>
</g>
<g>
</g>
<g>
</g>
<g>
</g>
<g>
</g>
<g>
</g>
<g>
</g>
<g>
</g>
<g>
</g>
<g>
</g>
<g>
</g>
</svg>
