<svg height="480pt" viewBox="0 0 480 480.15904" width="480pt" xmlns="http://www.w3.org/2000/svg"><path d="m176.078125 181.335938v33.328124c-.007813 3.679688-2.984375 6.660157-6.664063 6.671876h-66.671874c-3.675782-.011719-6.652344-2.992188-6.664063-6.671876v-33.328124c.023437-7.355469 5.980469-13.3125 13.335937-13.335938h53.328126c7.359374.023438 13.316406 5.980469 13.335937 13.335938zm0 0" fill="#666"/><path d="m400.078125 76.800781v25.597657c0 3.535156-2.863281 6.402343-6.398437 6.402343h-51.199219c-3.535157 0-6.402344-2.867187-6.402344-6.402343v-25.597657c0-7.070312 5.730469-12.800781 12.800781-12.800781h38.402344c7.066406 0 12.796875 5.730469 12.796875 12.800781zm0 0" fill="#666"/><path d="m472.078125 208c0 57.4375-46.5625 104-104 104s-104-46.5625-104-104 46.5625-104 104-104 104 46.5625 104 104zm0 0" fill="#f29200"/><path d="m264.078125 344c0 70.691406-57.304687 128-128 128-70.691406 0-128-57.308594-128-128s57.308594-128 128-128c70.695313 0 128 57.308594 128 128zm0 0" fill="#c1272d"/><path d="m183.910156 216.847656c.074219-.277344.128906-.5625.167969-.847656v-48c0-4.417969-3.582031-8-8-8h-32v-128h-16v128h-32c-4.417969 0-8 3.582031-8 8v48c.039063.285156.097656.570312.167969.847656-61.535156 23.121094-97.726563 86.941406-85.976563 151.617188 11.75 64.679687 68.074219 111.695312 133.808594 111.695312 65.738281 0 122.0625-47.015625 133.8125-111.695312 11.746094-64.675782-24.445313-128.496094-85.980469-151.617188zm-79.832031-40.847656h64v32h-64zm32 48c33.417969.015625 65.300781 14.015625 87.921875 38.609375l-18.617188 8.589844-31.335937-14.457031c-2.125-.980469-4.578125-.980469-6.703125 0l-31.320312 14.457031-31.289063-14.445313c-2.125-.984375-4.574219-.984375-6.703125 0l-31.304688 14.445313-18.574218-8.589844c22.628906-24.589844 54.511718-38.589844 87.925781-38.609375zm0 240c-33.414063-.019531-65.296875-14.019531-87.925781-38.609375l18.574218-8.589844 31.304688 14.445313c2.128906.984375 4.578125.984375 6.703125 0l31.289063-14.445313 31.320312 14.445313c2.125.984375 4.578125.984375 6.703125 0l31.335937-14.445313 18.617188 8.582031c-22.621094 24.597657-54.503906 38.601563-87.921875 38.617188zm120-120c.007813 24.542969-7.558594 48.492188-21.664063 68.574219l-25.679687-11.839844c-2.125-.980469-4.574219-.980469-6.703125 0l-31.335938 14.464844-31.320312-14.457031c-2.125-.980469-4.578125-.980469-6.703125 0l-31.289063 14.457031-31.304687-14.464844c-2.125-.980469-4.574219-.980469-6.703125 0l-25.597656 11.839844c-28.886719-41.152344-28.886719-95.996094 0-137.148438l25.597656 11.839844c2.128906.980469 4.578125.980469 6.703125 0l31.304687-14.464844 31.289063 14.445313c2.125.984375 4.578125.984375 6.703125 0l31.320312-14.445313 31.335938 14.457031c2.128906.980469 4.578125.980469 6.703125 0l25.679687-11.84375c14.109376 20.089844 21.675782 44.039063 21.664063 68.585938zm0 0"/><path d="m408.078125 103.511719v-39.511719c0-4.417969-3.582031-8-8-8h-24v-56h-16v56h-24c-4.417969 0-8 3.582031-8 8v39.511719c-50.449219 19.289062-79.945313 71.839843-70.136719 124.953125 9.808594 53.113281 56.125 91.660156 110.136719 91.660156s100.332031-38.546875 110.140625-91.660156c9.808594-53.113282-19.6875-105.664063-70.140625-124.953125zm-64-31.511719h48v24h-48zm24 40c14.273437.015625 28.359375 3.238281 41.21875 9.433594-30.636719 22.308594-66.933594 35.550781-104.738281 38.207031-6.398438.582031-13.070313.800781-19.78125.839844 17.054687-29.9375 48.847656-48.441407 83.300781-48.480469zm-96 96c.023437-10.75 1.859375-21.417969 5.441406-31.550781 1.96875 0 3.960938.125 5.910157.125 7.675781 0 15.203124-.335938 22.554687-1.007813 43.03125-2.9375 84.179687-18.761718 118.09375-45.40625 10.992187 7.921875 20.191406 18.066406 27 29.777344-1.957031 1.6875-4 3.367188-6.144531 5.054688-39.398438 29.359374-86.371094 46.847656-135.382813 50.398437-12.308593 1.070313-24.667969 1.375-37.015625.921875-.273437-2.710938-.457031-5.503906-.457031-8.3125zm96 96c-19.316406.003906-38.183594-5.851562-54.101563-16.800781.664063-.054688 1.253907-.078125 1.933594-.144531 49.734375-4.207032 97.964844-19.148438 141.363282-43.796876-14.480469 36.605469-49.828126 60.679688-89.195313 60.742188zm-53.597656-32.847656c-6.351563.574218-12.066407.902344-17.527344 1.09375-10.28125-11.351563-17.6875-25-21.601563-39.804688 2.609376.0625 5.246094.117188 8 .117188 9.246094 0 18.542969-.414063 27.574219-1.230469 52.089844-3.828125 101.992188-22.46875 143.832031-53.726563 1.152344-.898437 2.226563-1.800781 3.3125-2.699218 5.554688 14.601562 7.300782 30.378906 5.066407 45.839844-44.65625 28.765624-95.714844 46.078124-148.65625 50.410156zm0 0"/><path d="m170.71875 324c-2.207031-3.824219-7.101562-5.136719-10.925781-2.929688l-15.714844 9.074219v-18.144531c0-4.417969-3.582031-8-8-8s-8 3.582031-8 8v18.144531l-15.710937-9.074219c-3.824219-2.171874-8.683594-.851562-10.882813 2.957032s-.910156 8.675781 2.882813 10.902344l15.710937 9.070312-15.710937 9.070312c-2.496094 1.421876-4.039063 4.066407-4.046876 6.9375-.003906 2.871094 1.527344 5.527344 4.015626 6.957032 2.492187 1.429687 5.554687 1.414062 8.03125-.035156l15.710937-9.074219v18.144531c0 4.417969 3.582031 8 8 8s8-3.582031 8-8v-18.144531l15.714844 9.074219c2.476562 1.449218 5.539062 1.464843 8.027343.035156 2.492188-1.429688 4.023438-4.085938 4.015626-6.957032-.003907-2.871093-1.546876-5.515624-4.042969-6.9375l-15.714844-9.070312 15.714844-9.070312c3.824219-2.210938 5.136719-7.101563 2.925781-10.929688zm0 0"/><path d="m72.078125 336h-8v-8c0-4.417969-3.582031-8-8-8s-8 3.582031-8 8v8h-8c-4.417969 0-8 3.582031-8 8s3.582031 8 8 8h8v8c0 4.417969 3.582031 8 8 8s8-3.582031 8-8v-8h8c4.417969 0 8-3.582031 8-8s-3.582031-8-8-8zm0 0"/><path d="m208.078125 336h-8c-4.417969 0-8 3.582031-8 8s3.582031 8 8 8h8v8c0 4.417969 3.582031 8 8 8s8-3.582031 8-8v-8h8c4.417969 0 8-3.582031 8-8s-3.582031-8-8-8h-8v-8c0-4.417969-3.582031-8-8-8s-8 3.582031-8 8zm0 0"/></svg>