<?xml version="1.0" encoding="iso-8859-1"?>
<!-- Generator: Adobe Illustrator 19.0.0, SVG Export Plug-In . SVG Version: 6.00 Build 0)  -->
<svg version="1.1" id="Capa_1" xmlns="http://www.w3.org/2000/svg" xmlns:xlink="http://www.w3.org/1999/xlink" x="0px" y="0px"
	 viewBox="0 0 512 512" style="enable-background:new 0 0 512 512;" xml:space="preserve">
<path style="fill:#F13636;" d="M133.388,312.365c-2.812-2.399-7.113-2.713-10.65-3.041c-11.703-1.087-24.58-1.298-36.295-0.106
	c-18.858,1.92-35.2,8.1-48.296,22.135C4.202,367.734-6.67,425.249,28.82,463.994c22.827,24.921,65.402,33.436,97.146,25.091
	c19.467-5.118,35.991-15.209,46.92-32.579c11.535-18.332,18.251-40.296,18.867-61.928c0.541-19.015-4.6-39.451-16.667-54.372
	C166.054,329.036,152.781,315.241,133.388,312.365z"/>
<path style="fill:#E81D1D;" d="M120.121,428.227c-4.91,1.743-11.562-1.483-15.932-3.552c-17.165-8.128-25.086-27.258-27.25-45.094
	c-2.002-16.501,1.855-30.575,7.238-45.94c1.924-5.493,6.452-16.602,0.443-21.134c-3.836-2.893-13.897-2.151-18.432-1.131
	c-8.262,1.858-16.804,8.382-22.78,14.017c-18.31,17.266-28.86,33.532-33.311,58.343c-6.07,33.839-0.28,75.085,32.05,93.93
	c28.178,16.425,59.556,21.813,90.075,9.112c18.632-7.754,44.426-23.695,39.24-48.02c-1.924-9.022-9.343-11.308-17.682-11.264
	C143.348,427.549,135.079,431.644,120.121,428.227z"/>
<path style="fill:#F8F8F9;" d="M58.574,314.184c-10.871-25.935,41.328-47.633,57.575-28.904c3.048,3.513,5.472,9.335,4.67,13.999
	c-1.319,7.666-9.097,7.998-15.638,8.831c-9.33,1.188-18.738,1.022-28.068,2.416C71.404,311.379,60.318,311.955,58.574,314.184z"/>
<path style="fill:#EEF0F1;" d="M88.693,304.933c-5.502-4.074-2.217-12.424-3.055-18.178c-1.679-11.524-15.133-2.569-20.607,1.395
	c-5.809,4.207-18.54,18.627-9.379,25.694C63.346,319.779,77.675,307.58,88.693,304.933z"/>
<path style="fill:#DAD7D2;" d="M68.925,281.038c-1.506-9.193-4.318-20.3-3.232-29.702c1.437-12.45,16.155-27.971,29.487-18.906
	c8.708,5.921,10.452,30.439,9.167,39.578c-0.765,5.438,1.242,4.399-5.08,5.603c-10.386,1.977-20.465,2.941-30.844,5.68
	C69.132,283.214,69.844,283.189,68.925,281.038z"/>
<path style="fill:#A9A7A3;" d="M88.617,276.862c-3.873-6.749,1.658-54.119-14.165-35.784c-8.18,9.479-13.133,22.587-10.664,35.271
	C66.316,289.337,82.79,277.801,88.617,276.862z"/>
<path style="fill:#F13636;" d="M292.821,161.534c-2.812-2.399-7.113-2.713-10.65-3.041c-11.703-1.087-24.58-1.298-36.295-0.105
	c-18.859,1.919-35.2,8.1-48.296,22.135c-33.945,36.381-44.817,93.896-9.327,132.641c22.827,24.921,65.402,33.436,97.146,25.091
	c19.467-5.118,35.991-15.209,46.92-32.579c11.535-18.332,18.251-40.296,18.867-61.928c0.541-19.015-4.6-39.451-16.667-54.372
	C325.488,178.205,312.214,164.41,292.821,161.534z"/>
<path style="fill:#E81D1D;" d="M279.555,277.396c-4.91,1.743-11.562-1.483-15.932-3.552c-17.165-8.128-25.086-27.258-27.25-45.094
	c-2.002-16.501,1.856-30.575,7.238-45.94c1.924-5.493,6.452-16.602,0.444-21.134c-3.836-2.893-13.897-2.151-18.432-1.131
	c-8.262,1.858-16.804,8.382-22.78,14.017c-18.311,17.266-28.86,33.532-33.311,58.343c-6.07,33.839-0.28,75.085,32.05,93.93
	c28.178,16.425,59.556,21.813,90.075,9.112c18.632-7.754,44.426-23.695,39.24-48.02c-1.924-9.022-9.343-11.309-17.682-11.264
	C302.782,276.718,294.512,280.813,279.555,277.396z"/>
<path style="fill:#F8F8F9;" d="M218.008,163.353c-10.871-25.935,41.328-47.633,57.575-28.904c3.047,3.513,5.472,9.334,4.67,13.999
	c-1.319,7.666-9.097,7.998-15.638,8.831c-9.33,1.188-18.739,1.022-28.068,2.416C230.837,160.548,219.751,161.124,218.008,163.353z"
	/>
<path style="fill:#EEF0F1;" d="M248.127,154.102c-5.502-4.074-2.217-12.424-3.055-18.178c-1.679-11.524-15.133-2.569-20.607,1.395
	c-5.809,4.207-18.54,18.627-9.379,25.694C222.78,168.949,237.108,156.749,248.127,154.102z"/>
<path style="fill:#DAD7D2;" d="M228.358,130.207c-1.505-9.193-4.318-20.3-3.232-29.702c1.437-12.45,16.155-27.971,29.487-18.906
	c8.708,5.921,10.452,30.439,9.167,39.578c-0.765,5.438,1.242,4.399-5.08,5.603c-10.386,1.977-20.465,2.941-30.844,5.68
	C228.565,132.383,229.277,132.358,228.358,130.207z"/>
<path style="fill:#A9A7A3;" d="M248.05,126.032c-3.874-6.749,1.658-54.119-14.165-35.784c-8.18,9.479-13.133,22.587-10.664,35.271
	C225.749,138.506,242.223,126.97,248.05,126.032z"/>
<path style="fill:#F13636;" d="M451.447,324.642c-2.812-2.399-7.113-2.713-10.65-3.041c-11.703-1.087-24.58-1.298-36.295-0.106
	c-18.859,1.919-35.2,8.1-48.296,22.135c-33.945,36.381-44.817,93.896-9.327,132.641c22.828,24.921,65.402,33.436,97.146,25.091
	c19.467-5.118,35.991-15.209,46.92-32.579c11.535-18.332,18.251-40.296,18.867-61.928c0.541-19.015-4.6-39.451-16.667-54.372
	C484.113,341.314,470.84,327.519,451.447,324.642z"/>
<path style="fill:#E81D1D;" d="M438.181,440.504c-4.91,1.743-11.562-1.483-15.932-3.552c-17.165-8.128-25.086-27.258-27.25-45.094
	c-2.002-16.501,1.856-30.575,7.238-45.94c1.924-5.493,6.452-16.602,0.444-21.134c-3.836-2.893-13.897-2.151-18.432-1.131
	c-8.262,1.858-16.804,8.382-22.78,14.017c-18.311,17.266-28.86,33.532-33.311,58.343c-6.07,33.839-0.28,75.085,32.05,93.93
	c28.178,16.425,59.556,21.813,90.075,9.112c18.632-7.754,44.426-23.695,39.24-48.02c-1.924-9.022-9.343-11.309-17.682-11.264
	C461.407,439.826,453.138,443.922,438.181,440.504z"/>
<path style="fill:#F8F8F9;" d="M376.634,326.461c-10.871-25.935,41.328-47.633,57.575-28.904c3.048,3.513,5.472,9.335,4.67,13.999
	c-1.319,7.666-9.096,7.998-15.638,8.831c-9.33,1.188-18.738,1.022-28.068,2.416C389.463,323.657,378.377,324.233,376.634,326.461z"
	/>
<path style="fill:#EEF0F1;" d="M406.753,317.211c-5.502-4.074-2.217-12.424-3.055-18.178c-1.679-11.524-15.133-2.569-20.607,1.395
	c-5.809,4.207-18.54,18.627-9.379,25.694C381.406,332.057,395.734,319.858,406.753,317.211z"/>
<path style="fill:#DAD7D2;" d="M386.984,293.316c-1.505-9.193-4.318-20.3-3.232-29.702c1.437-12.45,16.155-27.971,29.487-18.906
	c8.708,5.921,10.453,30.439,9.167,39.578c-0.765,5.438,1.242,4.399-5.08,5.603c-10.386,1.977-20.465,2.941-30.844,5.68
	C387.191,295.492,387.903,295.467,386.984,293.316z"/>
<path style="fill:#A9A7A3;" d="M406.676,289.14c-3.874-6.749,1.658-54.119-14.165-35.784c-8.18,9.479-13.133,22.587-10.664,35.271
	C384.375,301.614,400.849,290.079,406.676,289.14z"/>
<path d="M164.015,322.091c-10.744-7.983-23.014-13.711-35.843-17.082c-0.425-9.945-1.775-20.415-9.745-27.315
	c-1.25-1.082-2.593-1.962-3.992-2.701c-2.236-17.296-4.219-47.043-25.792-47.962c3.626-22.553,1.313-47.006,1.005-69.678
	c-0.344-25.284-1.071-50.556-1.745-75.834c-0.155-5.832-9.112-5.866-9.086,0c0.109,25.28,0.163,50.557,0.601,75.834
	c0.395,22.816-1.21,47.559,3.221,70.111c-9.828,1.779-17.036,8.98-20.519,18.227c-4.404,11.692-1.856,23.68,1.462,35.253
	c-1.877,1.24-3.605,2.649-5.106,4.273c-7.194,7.783-7.703,17.777-7.172,27.776c0.026,0.489,0.129,0.924,0.262,1.335
	c-11.199,6.613-21.011,15.816-28.463,27.723c-0.268,0.428-0.374,0.871-0.375,1.304c-9.714,13.37-16.466,28.999-19.972,45.017
	c-5.173,23.636-3.683,49.847,9.804,70.577c11.964,18.389,31.187,30.375,51.835,36.828c21.817,6.818,48.152,9.255,69.975,1.23
	c21.749-7.998,36.122-26.788,46.15-46.883c11.237-22.518,19.447-48.063,16.212-73.481
	C193.924,354.583,181.781,335.291,164.015,322.091z M82.636,239.998c16.388-6.065,18.005,19.113,19.029,31.931
	c-4.119-0.152-8.307,0.249-12.238,0.787c-5.925,0.811-12.652,2.111-18.736,4.555C69.391,264.006,68.643,245.177,82.636,239.998z
	 M85.83,286.21c5.94-1.348,13.839-2.995,19.953-1.449c8.376,2.117,9.702,10.294,10.034,17.779
	c-18.745-2.667-38.005-0.438-54.969,7.038C62.136,295.764,72.287,289.283,85.83,286.21z M175.973,428.972
	c-6.962,18.109-16.95,37.635-33.192,49.102c-17.369,12.262-40.648,12.227-60.769,8.334c-17.473-3.381-34.872-10.377-47.933-22.776
	c-15.72-14.923-21.851-36.115-20.941-57.381c1.551-36.225,23.805-73.643,56.902-88.953c24.003-7.108,50.965-4.357,73.843,8.08
	c16.128,8.766,30.799,22.494,37.01,40.139C188.225,386.343,183.672,408.944,175.973,428.972z"/>
<path d="M341.025,299.5c11.206-22.533,19.381-48.09,16.11-73.504c-2.838-22.054-15.008-41.33-32.792-54.505
	c-10.755-7.969-23.033-13.679-35.866-17.032c-0.439-9.944-1.803-20.413-9.783-27.302c-1.252-1.081-2.595-1.959-3.996-2.696
	c-2.26-17.293-4.284-47.037-25.858-47.927c3.637,0.15,1.129-65.339-0.294-72.362c-0.233-1.15-0.532-2.359-1.364-3.186
	c-1.465-1.454-4.08-1.059-5.594,0.344c-1.514,1.403-2.16,3.498-2.568,5.522c-2.083,10.322,0.438,23.014,0.618,33.607
	c0.208,12.223,0.819,24.496,3.198,36.515c-9.826,1.793-17.024,9.003-20.494,18.256c-4.387,11.698-1.824,23.683,1.511,35.251
	c-1.875,1.243-3.601,2.654-5.1,4.28c-7.183,7.793-7.679,17.788-7.134,27.786c0.027,0.489,0.13,0.924,0.264,1.335
	c-11.19,6.629-20.989,15.845-28.424,27.762c-0.267,0.429-0.372,0.872-0.373,1.305c-9.696,13.383-16.426,29.021-19.91,45.045
	c-5.14,23.643-3.614,49.852,9.902,70.564c11.99,18.373,31.229,30.332,51.886,36.756c21.826,6.788,48.165,9.188,69.976,1.133
	C316.677,338.419,331.024,319.609,341.025,299.5z M242.85,89.511c16.379-6.087,18.031,19.088,19.073,31.905
	c-4.12-0.146-8.307,0.26-12.237,0.804c-5.925,0.819-12.65,2.129-18.73,4.581C229.638,113.538,228.864,94.709,242.85,89.511z
	 M246.108,135.719c5.938-1.357,13.835-3.014,19.951-1.477c8.378,2.106,9.717,10.281,10.058,17.765
	c-18.748-2.641-38.005-0.385-54.959,7.114C222.427,145.306,232.569,138.811,246.108,135.719z M303.325,327.503
	c-17.352,12.286-40.631,12.284-60.758,8.419c-17.477-3.356-34.886-10.329-47.964-22.71c-15.74-14.902-21.902-36.085-21.02-57.352
	c1.501-36.227,23.703-73.676,56.779-89.033c23.994-7.141,50.959-4.427,73.855,7.978c16.139,8.744,30.831,22.451,37.066,40.087
	c7.36,20.817,2.839,43.424-4.832,63.463C329.513,296.475,319.551,316.014,303.325,327.503z"/>
<path d="M511.678,390.372c-1.898-22.155-13.238-41.93-30.445-55.85c-10.407-8.418-22.43-14.645-35.11-18.542
	c-0.015-9.954-0.934-20.471-8.613-27.693c-1.205-1.133-2.51-2.067-3.878-2.863c-1.522-17.374-2.28-47.177-23.797-48.983
	c4.551-22.385,3.246-46.912,3.87-69.578c0.696-25.277,1.009-50.558,1.376-75.842c0.084-5.834-8.863-6.236-9.078-0.374
	c-0.932,25.263-1.916,50.521-2.519,75.795c-0.543,22.812-3.165,47.469,0.335,70.184c-9.893,1.373-17.391,8.271-21.252,17.368
	c-4.881,11.502-2.829,23.584,0.01,35.283c-1.926,1.161-3.711,2.498-5.278,4.059c-7.508,7.48-8.428,17.445-8.309,27.457
	c0.006,0.49,0.091,0.929,0.207,1.345c-11.462,6.147-21.643,14.939-29.579,26.529c-0.285,0.417-0.409,0.855-0.428,1.288
	c-10.256,12.959-17.645,28.297-21.806,44.157c-6.141,23.403-5.73,49.653,6.892,70.921c11.197,18.866,29.911,31.633,50.277,38.929
	c21.518,7.71,47.731,11.227,69.865,4.106c22.059-7.096,37.193-25.279,48.039-44.945
	C504.612,441.088,513.866,415.902,511.678,390.372z M403.3,249.152c16.623-5.385,17.203,19.837,17.699,32.686
	c-4.109-0.321-8.31-0.093-12.26,0.283c-5.954,0.566-12.728,1.589-18.908,3.78C389.078,272.595,389.105,253.75,403.3,249.152z
	 M404.59,295.456c5.99-1.103,13.951-2.423,19.996-0.628c8.282,2.46,9.271,10.685,9.294,18.177
	c-18.619-3.436-37.955-2.001-55.212,4.771C380.523,304.028,390.932,297.97,404.59,295.456z M488.785,441.804
	c-7.7,17.808-18.484,36.906-35.184,47.696c-17.859,11.537-41.117,10.545-61.061,5.828c-17.319-4.096-34.415-11.803-46.955-24.729
	c-15.093-15.558-20.347-36.983-18.563-58.194c3.04-36.13,26.814-72.602,60.513-86.538c24.276-6.115,51.101-2.257,73.449,11.11
	c15.754,9.423,29.848,23.741,35.328,41.627C502.78,399.716,497.302,422.11,488.785,441.804z"/>
<g>
</g>
<g>
</g>
<g>
</g>
<g>
</g>
<g>
</g>
<g>
</g>
<g>
</g>
<g>
</g>
<g>
</g>
<g>
</g>
<g>
</g>
<g>
</g>
<g>
</g>
<g>
</g>
<g>
</g>
</svg>
