<?xml version="1.0" encoding="iso-8859-1"?>
<!-- Generator: Adobe Illustrator 19.0.0, SVG Export Plug-In . SVG Version: 6.00 Build 0)  -->
<svg version="1.1" id="Capa_1" xmlns="http://www.w3.org/2000/svg" xmlns:xlink="http://www.w3.org/1999/xlink" x="0px" y="0px"
	 viewBox="0 0 470 470" style="enable-background:new 0 0 470 470;" xml:space="preserve">
<g>
	<path style="fill:#F8E19E;" d="M359.321,400.648c4.948,0.953,10.033,1.437,15.114,1.437c43.73,0,79.309-35.578,79.309-79.309
		c0-35.6-23.945-67.047-58.231-76.474c-3.256-0.895-5.512-3.855-5.512-7.231V226.38H358.87v12.691c0,3.376-2.256,6.336-5.512,7.231
		c-11.579,3.185-22.476,9.102-31.511,17.111c-1.428,1.266-3.204,1.888-4.973,1.888c-1.911,0-3.807-0.735-5.255-2.16
		c-3.451,3.646-6.58,7.595-9.362,11.796c25.788,20.265,41.887,51.69,41.887,85.916c0,14.086-2.683,27.557-7.563,39.929
		c4.482,2.192,9.178,4.012,14.053,5.415C351.59,402.358,355.39,399.885,359.321,400.648z"/>
	<path style="fill:#90F6E6;" d="M168.067,274.687c-2.805-4.205-5.965-8.148-9.441-11.793c-1.473,1.59-3.48,2.408-5.5,2.408
		c-1.769,0-3.545-0.622-4.973-1.888c-9.035-8.01-19.932-13.927-31.511-17.111c-3.256-0.896-5.512-3.855-5.512-7.231V226.38H80
		v12.691c0,3.376-2.256,6.337-5.512,7.231c-34.286,9.427-58.231,40.874-58.231,76.474c0,43.73,35.578,79.309,79.309,79.309
		c5.084,0,10.167-0.483,15.108-1.437c3.987-0.775,7.823,1.768,8.722,5.687c4.891-1.377,9.603-3.179,14.102-5.351
		c-4.931-12.428-7.644-25.968-7.644-40.13C125.854,326.486,142.089,294.942,168.067,274.687z"/>
	<path style="fill:#FF3213;" d="M329.145,360.854c0-42.259-28.426-79.589-69.126-90.779c-3.256-0.895-5.512-3.855-5.512-7.231
		v-16.143h-39.016v16.143c0,3.376-2.256,6.337-5.512,7.231c-40.7,11.19-69.126,48.521-69.126,90.779
		C140.854,412.767,183.087,455,235,455S329.145,412.767,329.145,360.854z M227.333,432.478c-0.753,3.521-3.865,5.933-7.326,5.933
		c-0.521,0-1.048-0.055-1.577-0.168c-36.259-7.757-62.576-40.304-62.576-77.388c0-31.846,18.982-60.466,48.359-72.912
		c3.813-1.619,8.215,0.165,9.831,3.979c1.616,3.813-0.165,8.216-3.979,9.831c-23.819,10.093-39.211,33.291-39.211,59.102
		c0,30.056,21.328,56.433,50.715,62.72C225.619,424.44,228.2,428.427,227.333,432.478z M251.569,438.242
		c-0.529,0.113-1.057,0.168-1.577,0.168c-3.461,0-6.573-2.411-7.326-5.933c-0.866-4.051,1.715-8.037,5.765-8.903
		c29.387-6.287,50.715-32.664,50.715-62.72c0-4.143,3.357-7.5,7.5-7.5s7.5,3.357,7.5,7.5
		C314.145,397.938,287.828,430.485,251.569,438.242z"/>
	<path style="fill:#002E22;" d="M110.673,400.648c-4.941,0.953-10.024,1.437-15.108,1.437c-43.73,0-79.309-35.578-79.309-79.309
		c0-35.6,23.945-67.047,58.231-76.474c3.256-0.895,5.512-3.855,5.512-7.231V226.38h31.131v12.691c0,3.376,2.256,6.336,5.512,7.231
		c11.579,3.185,22.476,9.102,31.511,17.111c1.428,1.266,3.204,1.888,4.973,1.888c2.02,0,4.026-0.818,5.5-2.408
		c0.037-0.041,0.079-0.075,0.115-0.117c2.748-3.1,2.463-7.84-0.637-10.588c-9.3-8.243-20.26-14.623-31.974-18.646v-7.197
		c3.829-0.338,6.832-3.549,6.832-7.466c0-4.143-3.357-7.5-7.5-7.5h-6.985v-13.614c0-10.007-6.452-18.531-15.412-21.645V7.5
		c0-4.143-3.357-7.5-7.5-7.5s-7.5,3.357-7.5,7.5v168.621c-8.96,3.114-15.412,11.638-15.412,21.645v13.614h-6.986
		c-4.143,0-7.5,3.357-7.5,7.5c0,3.917,3.003,7.128,6.833,7.466v7.193c-37.807,12.94-63.743,48.842-63.743,89.237
		c0,52.002,42.307,94.309,94.309,94.309c6.035,0,12.074-0.574,17.95-1.708c4.066-0.784,6.728-4.718,5.943-8.785
		c-0.017-0.087-0.043-0.17-0.063-0.257C118.496,402.416,114.66,399.874,110.673,400.648z M87.653,197.766
		c0-1.415,0.378-2.74,1.031-3.891c1.153,2.658,3.798,4.519,6.881,4.519s5.728-1.861,6.881-4.519c0.653,1.15,1.031,2.476,1.031,3.891
		v13.614H87.653V197.766z"/>
	<path style="fill:#002E22;" d="M405,233.539v-7.193c3.829-0.338,6.832-3.549,6.832-7.466c0-4.143-3.357-7.5-7.5-7.5h-6.985v-13.614
		c0-10.007-6.452-18.531-15.412-21.645V7.5c0-4.143-3.357-7.5-7.5-7.5s-7.5,3.357-7.5,7.5v168.621
		c-8.96,3.114-15.412,11.638-15.412,21.645v13.614h-6.985c-4.143,0-7.5,3.357-7.5,7.5c0,3.917,3.003,7.128,6.832,7.466v7.197
		c-11.714,4.023-22.674,10.403-31.974,18.646c-3.1,2.748-3.385,7.488-0.637,10.588c0.115,0.129,0.239,0.245,0.361,0.365
		c1.447,1.425,3.344,2.16,5.255,2.16c1.769,0,3.545-0.622,4.973-1.888c9.035-8.01,19.932-13.927,31.511-17.111
		c3.256-0.896,5.512-3.855,5.512-7.231V226.38H390v12.691c0,3.376,2.256,6.337,5.512,7.231
		c34.286,9.427,58.231,40.874,58.231,76.474c0,43.73-35.578,79.309-79.309,79.309c-5.081,0-10.166-0.483-15.114-1.437
		c-3.931-0.764-7.73,1.709-8.686,5.55c-0.033,0.132-0.071,0.26-0.097,0.395c-0.784,4.067,1.878,8,5.945,8.783
		c5.882,1.134,11.922,1.708,17.952,1.708c52.002,0,94.309-42.307,94.309-94.309C468.744,282.381,442.807,246.479,405,233.539z
		 M366.523,197.766c0-1.415,0.378-2.74,1.031-3.891c1.153,2.658,3.798,4.519,6.881,4.519s5.728-1.861,6.881-4.519
		c0.653,1.15,1.031,2.476,1.031,3.891v13.614h-15.824V197.766z"/>
	<path style="fill:#002E22;" d="M302.258,274.938c-9.669-7.598-20.691-13.637-32.75-17.652v-10.585h0.5c4.143,0,7.5-3.357,7.5-7.5
		s-3.357-7.5-7.5-7.5h-9.461v-17.224c0-11.477-7.609-21.209-18.047-24.421v-18.732l55.735,55.735
		c1.465,1.464,3.385,2.196,5.304,2.196c1.92,0,3.839-0.732,5.304-2.196c2.929-2.93,2.929-7.678,0-10.607l-55.73-55.729
		c6.703,0.002,14.208,0.003,20.442,0.003l9.551-0.002c1.442-0.001,2.66-0.001,3.714-0.061l-0.001,0.054
		c-0.085-0.001-0.17-0.004-0.232-0.008c0.249,0.018,0.499,0.029,0.752,0.029c15.574,0,28.245-12.671,28.245-28.245
		s-12.671-28.244-28.245-28.244c-7.047,0-13.819,2.632-19.07,7.41c-0.03,0.027-0.06,0.055-0.089,0.082L242.5,135.876V7.5
		c0-4.143-3.357-7.5-7.5-7.5s-7.5,3.357-7.5,7.5v128.376l-25.678-24.135c-0.029-0.027-0.059-0.055-0.089-0.082
		c-5.251-4.778-12.023-7.41-19.071-7.41c-15.574,0-28.244,12.67-28.244,28.244s12.67,28.245,28.244,28.245
		c0.255,0,0.504-0.012,0.774-0.031c-0.085,0.006-0.169,0.009-0.255,0.01l-0.001-0.054c1.057,0.06,2.276,0.06,3.715,0.061l9.55,0.002
		c6.234,0,13.739-0.001,20.442-0.003l-55.729,55.729c-2.929,2.93-2.929,7.678,0,10.607c1.465,1.464,3.385,2.196,5.304,2.196
		s3.839-0.732,5.304-2.196l55.734-55.734v18.732c-10.437,3.212-18.046,12.944-18.046,24.42v17.224h-9.462
		c-4.143,0-7.5,3.357-7.5,7.5s3.357,7.5,7.5,7.5h0.5v10.585c-11.925,3.97-22.834,9.922-32.425,17.401
		c-25.977,20.255-42.213,51.799-42.213,86.167c0,14.162,2.713,27.702,7.644,40.13C149.521,441.369,188.979,470,235,470
		c46.097,0,85.611-28.726,101.582-69.216c4.881-12.373,7.563-25.844,7.563-39.929C344.145,326.628,328.046,295.203,302.258,274.938z
		 M140.854,360.854c0-42.259,28.426-79.589,69.126-90.779c3.256-0.895,5.512-3.855,5.512-7.231v-16.143h39.016v16.143
		c0,3.376,2.256,6.337,5.512,7.231c40.7,11.19,69.126,48.521,69.126,90.779C329.145,412.767,286.912,455,235,455
		S140.854,412.767,140.854,360.854z M278.403,122.717c2.478-2.237,5.647-3.468,8.935-3.468c7.304,0,13.245,5.941,13.245,13.244
		c0,7.247-5.851,13.153-13.077,13.244c-0.158-0.01-0.317-0.017-0.477-0.019c-0.035-0.001-0.07-0.001-0.105-0.001
		c-0.048,0-0.096,0-0.144,0.001c-1.246,0.009-18.654,0.007-32.854,0.004L278.403,122.717z M183.222,145.719
		c-0.083-0.001-0.164-0.001-0.25,0c-0.157,0.002-0.313,0.009-0.477,0.019c-7.227-0.09-13.078-5.996-13.078-13.244
		c0-7.303,5.941-13.244,13.244-13.244c3.287,0,6.459,1.231,8.937,3.468l24.476,23.006
		C201.88,145.725,184.478,145.728,183.222,145.719z M224.454,214.478c0-2.899,1.177-5.528,3.077-7.437
		c0.311,3.857,3.532,6.891,7.469,6.891c3.937,0,7.159-3.034,7.469-6.891c1.901,1.908,3.078,4.538,3.078,7.437v17.224h-21.093
		V214.478z"/>
	<path style="fill:#FFFFFF;" d="M221.569,423.574c-29.387-6.287-50.715-32.664-50.715-62.72c0-25.811,15.392-49.009,39.211-59.102
		c3.814-1.615,5.596-6.018,3.979-9.831c-1.616-3.814-6.018-5.599-9.831-3.979c-29.377,12.446-48.359,41.066-48.359,72.912
		c0,37.084,26.317,69.631,62.576,77.388c0.529,0.113,1.057,0.168,1.577,0.168c3.461,0,6.573-2.411,7.326-5.933
		C228.2,428.427,225.619,424.44,221.569,423.574z"/>
	<path style="fill:#FFFFFF;" d="M306.645,353.354c-4.143,0-7.5,3.357-7.5,7.5c0,30.056-21.328,56.433-50.715,62.72
		c-4.05,0.866-6.631,4.853-5.765,8.903c0.753,3.521,3.865,5.933,7.326,5.933c0.521,0,1.048-0.055,1.577-0.168
		c36.259-7.757,62.576-40.304,62.576-77.388C314.145,356.712,310.788,353.354,306.645,353.354z"/>
</g>
<g>
</g>
<g>
</g>
<g>
</g>
<g>
</g>
<g>
</g>
<g>
</g>
<g>
</g>
<g>
</g>
<g>
</g>
<g>
</g>
<g>
</g>
<g>
</g>
<g>
</g>
<g>
</g>
<g>
</g>
</svg>
