<?xml version="1.0" encoding="iso-8859-1"?>
<!-- Generator: Adobe Illustrator 19.0.0, SVG Export Plug-In . SVG Version: 6.00 Build 0)  -->
<svg version="1.1" id="Capa_1" xmlns="http://www.w3.org/2000/svg" xmlns:xlink="http://www.w3.org/1999/xlink" x="0px" y="0px"
	 viewBox="0 0 512 512" style="enable-background:new 0 0 512 512;" xml:space="preserve">
<path style="fill:#47D4F7;" d="M161.366,154.659c-5.344,4.51-9.858,14.204-12.78,20.546c-4.551,9.877-8.422,20.012-12.828,29.946
	c-10.214,23.03-18.374,48.078-20.205,73.377c-2.067,28.556-0.422,67.98,36.062,71.885c17.545,1.878,31.242-9.591,44.098-19.946
	c7.043-5.673,12.103-10.737,21.082-6.23c13.364,6.709,12.82,21.513,10.79,34.345c-3.138,19.829-8.902,38.785-10.447,58.975
	c-1.31,17.129-3.082,34.944,6.2,49.955c3.919,6.338,6.28,13.92,10.876,19.734c5.855,7.405,19.925,15.617,29.361,16.64
	c10.773,1.168,21.841-1.332,32.42-2.997c13.512-2.127,26.637-5.39,38.42-12.666c19.803-12.228,35.083-33.392,42.115-55.44
	c8.373-26.253,14.943-53.722,19.82-80.839c5.012-27.867,1.439-57.303-3.068-85.02c-4.206-25.866-8.826-51.682-13.081-77.568
	c-0.658-4.005-0.084-16.366-3.208-19.682c-2.238-2.375-4.214-0.418-7.239,0.01c-4.646,0.658-9.989,0.388-13.795-2.734
	c-3.053-2.505-3.698-6.834-6.816-9.281c-6.927-5.436-14.256,2.323-21.577,2.06c-4.943-0.177-10.372-2.435-14.307-5.193
	c-4.635-3.249-8.453-5.185-14.238-6.168c-9.902-1.683-18.439,6.141-27.923,0.732c-9.362-5.339-15.363-10.09-25.715-3.735
	c-9.767,5.997-17.083,9.391-27.913,5.216c-6.767-2.609-14.677-5.938-21.774-3.642c-4.228,1.368-7.346,3.94-11.976,4.696
	C177.498,152.651,171.734,151.404,161.366,154.659z"/>
<g>
	<path style="fill:#2DC9ED;" d="M194.344,145.522c-8.244,2.656-13.268,21.762-15.997,28.619
		c-9.607,24.137-12.229,48.43-12.467,74.237c-0.199,21.626,2.244,39.585,14.725,57.656c5.779,8.366,14.818,13.667,12.174,25.113
		c-4.178,18.082-26.747,22.094-41.983,20.851c-20.625-1.682-29.997-16.02-35.247-34.997c-12.277-44.379,8.376-90.571,25.901-130.733
		c4.92-11.276,10.365-27.05,22.573-32.205c3.105-1.311,5.512-1.877,8.747-1.523c3.753,0.411,5.056,2.523,8.986,1.67
		C186.519,153.177,191.925,146.557,194.344,145.522z"/>
	<path style="fill:#2DC9ED;" d="M220.162,468.238c-4.956-25.119-0.361-53.946,4.052-78.835c3.42-19.287,8.471-38.7,2.477-58.094
		c-3.014-9.752-9.834-18.529-9.826-28.908c0.01-13.145,10.29-40.51,27.675-35.533c18.889,5.408,21.484,34.043,22.248,49.646
		c1.429,29.18-9.411,65.993,6.302,92.544c12.149,20.529,36.202,30.056,58.81,21.773c8.142-2.983,15.389-8.308,22.618-12.939
		c4.094-2.623,13.982-11.066,19.243-10.336c7.629,1.058,9.18,15.829,8.923,22.397c-0.462,11.809-9.964,23.888-17.227,32.375
		c-18.632,21.772-49.663,35.804-76.882,43.421c-15.111,4.228-26.072,3.352-39.821-4.189
		C235.472,494.273,230.864,483.2,220.162,468.238z"/>
</g>
<g>
	<path style="fill:#2989E8;" d="M124.273,233.834c0.697,0.268,1.706,0.376,3.127,0.312c8.541-0.385,14.08-8.078,21.447-11.299
		c8.898-3.89,19.625-5.778,29.104-8.059c25.712-6.187,51.9-8.853,78.349-8.032c26.911,0.835,54.078,6.542,79.818,14.262
		c10.773,3.231,21.634,6.312,32.342,9.753c3.698,1.188,15.033,8.093,18.632,6.649c5.595-2.245-1.19-17.697-1.858-21.405
		c-1.145-6.355-0.724-16.034-7.823-18.618c-7.139-2.598-16.132-3.214-23.627-5.076c-8.88-2.207-17.767-4.61-26.769-6.239
		c-23.781-4.303-48.778-5.721-72.866-7.34c-16.746-1.125-33.591-2-50.324-0.195c-15.615,1.684-29.138,5.021-44.072,10.175
		c-10.781,3.721-19.707,3.383-25.788,13.713c-4.54,7.712-7.846,16.557-10.194,25.185
		C122.889,230.855,122.209,233.042,124.273,233.834z"/>
	<path style="fill:#2989E8;" d="M111.747,294.548c4.129-4.741,15.945-5.85,21.637-7.344c14.555-3.819,28.861-8.469,43.721-11.069
		c23.156-4.052,46.729-5.605,70.181-4.893c20.86,0.634,41.248,4.518,61.856,7.386c21.228,2.954,43.305,8.707,62.941,17.443
		c6.696,2.979,16.826,5.507,21.779,11.114c6.622,7.496,4.263,22.06,2.719,31.045c-0.485,2.82-0.323,9.662-2.045,11.98
		c-1.509,2.031-2.319,1.335-5.217,1.117c-13.3-1.002-24.59-5.826-37.377-9.099c-27.216-6.967-53.956-14.705-82.146-16.642
		c-8.716-0.599-17.444-0.629-26.124,0.497c-5.408,0.701-13.091,3.013-18.575,1.558c-3.531-0.937-2.683-2.611-5.348-5.031
		c-3.825-3.473-9.278-1.656-13.773-0.082c-15.609,5.464-27.102,19.452-42.895,25.069
		C130.222,359.282,105.394,323.395,111.747,294.548z"/>
	<path style="fill:#2989E8;" d="M220.408,390.954c5.712,5.316,15.28,5.802,22.6,7.65c14.232,3.591,29.112,6.716,43.695,8.301
		c16.556,1.798,33.219,0.168,49.755,0.799c13.407,0.512,26.511-1.121,39.85-1.854c14.033-0.772,7,12.695,3.444,20.317
		c-4.053,8.688-9.207,19.855-18.647,23.352c-11.081,4.105-22.803,7.352-34.687,7.576c-12.135,0.229-24.357,0.579-36.43-0.932
		c-4.639-0.58-8.039-2.123-12.317-3.577c-4.635-1.576-9.774-1.374-14.615-1.799c-10.808-0.949-21.078-4.786-31.382-7.919
		c-5.218-1.586-13.778-4.641-17.587-8.668c-3.898-4.121-2.165-10.748-1.456-15.708C213.914,409.508,216.973,402.841,220.408,390.954
		z"/>
</g>
<g>
	<path style="fill:#197CCD;" d="M176.29,183.029c-6.314,8.097-8.338,23.188-9.047,33.471c-5.301-0.261-14.927,4.671-19.668,6.85
		c-6.755,3.105-15.569,11.809-23.133,11.499c-0.246-5.896,4.89-14.405,6.894-19.968c2.273-6.31,4.964-12.532,7.451-18.736
		c5.287-1.002,10.482-3.846,15.651-5.683C162.715,187.521,171.491,185.25,176.29,183.029z"/>
	<path style="fill:#197CCD;" d="M168.457,276.086c0.137,8.965,1.275,18.322,5.954,26.057c6.412,10.6,19.805,18.228,14.001,32.168
		c-8.685,20.859-47.116,19.134-61.074,5.199c-8.508-8.495-13.145-22.788-15.057-34.368c-1.288-7.8-2.254-10.151,5.166-13.457
		c7.545-3.363,15.307-3.854,23.213-5.497C149.723,284.304,160.215,277.662,168.457,276.086z"/>
	<path style="fill:#197CCD;" d="M213.999,318.721c6.454-11.016,28.209-22.077,40.291-14.313c4.944,3.177,12.403,12.059,12.47,18.164
		c-3.254-0.035-6.569,0.826-9.847,1.113c-6.017,0.526-11.876-0.545-17.891-0.128c-4.932,0.342-9.261,2.922-14.056,3.38
		C216.847,327.712,219.002,322.148,213.999,318.721z"/>
	<path style="fill:#197CCD;" d="M241.141,399.037c6.148,2.008,12.185,3.213,18.51,4.36c6.697,1.215,11.442-0.295,11.093,7.861
		c-0.327,7.64-1.987,15.371,4.093,21.517c9.226,9.327,26.541,7.357,35.112,16.473c7.156,7.611-11.043,7.172-15.862,7.089
		c-10.643-0.184-20.816-2.172-31.197-4.281c-8.011-1.628-15.113-5.408-23.005-7.476c-4.567-1.196-17.472-2.384-20.588-6.17
		c-1.955-2.375-0.931-6.847-0.936-9.755c-0.015-8.823-0.704-20.448,3.051-28.999C225.701,389.889,233.701,396.608,241.141,399.037z"
		/>
</g>
<path style="fill:#F8F8F9;" d="M272.283,70.433c-9.058-0.209-18.237,4.108-26.639,6.945c-11.517,3.889-19.208-7.009-31.766-3.325
	c-10.895,3.196-16.105,17.676-27.294,18.505c-5.605,0.415-6.945-2.349-13.13,1.541c-5.876,3.696-12.365,9.701-13.715,16.761
	c-1.521,7.959,4.183,14.999,2.713,22.942c-1.786,9.653-10.423,16.74,3.733,21.337c7.628,2.477,16.639,0.527,23.882-2.455
	c5.107-2.104,8.971-6.53,14.53-5.516c9.292,1.694,11.737,12.286,22.89,8.728c8.658-2.762,16.958-16.512,26.966-14.6
	c3.3,0.631,6.478,4.651,9.048,6.604c4.73,3.594,8.555,5.532,14.798,5.212c6.798-0.349,21.832-11.209,27.965-8.059
	c2.386,1.226,3.574,6.127,5.439,8.146c3.512,3.803,9.21,6.609,14.368,6.952c7.347,0.488,15.933-8.058,21.355-3.796
	c2.173,1.708,3.855,6.145,6.017,8.288c4.737,4.697,10.891,7.314,17.636,6.105c9.65-1.73,20.77-10.954,17.957-21.643
	c-2.43-9.234-12.901-14.643-16.589-22.781c-4.651-10.261,2.753-22.106-6.434-31.479c-8.577-8.752-23.243-3.054-30.923-10.147
	c-3.623-3.345-3.479-8.253-8.745-11.081c-6.06-3.255-16.435-3.19-23.103-1.98c-6.789,1.233-12.247,7.519-19.372,4.962
	c-1.984-0.712-3.085-2.731-4.884-3.426C274.151,71.305,270.355,73.303,272.283,70.433z"/>
<path style="fill:#EEF0F1;" d="M390.161,158.726c-2.503,4.867-8.982,9.038-14.083,10.757c-8.773,2.957-14.336-1.48-20.913-6.559
	c-5.729-4.425-9.706-4.664-16.463-2.542c-3.316,1.041-7.502,3.095-11.139,2.525c-4.24-0.664-4.892-3.216-7.302-6.352
	c-4.166-5.419-11.088-8.418-17.744-7.523c-8.222,1.105-19.517,7.55-27.543,3.943c-5.745-2.582-8.147-9.57-14.694-11.292
	c-8.053-2.118-16.162,5.641-23.022,8.791c-5.784,2.656-13.356,4.008-19.284,1.34c-8.017-3.609-12.191-6.973-21.578-4.095
	c-13.772,4.222-42.111,11.99-38.219-13.181c1.256-8.123,8.292-13.378,7.66-21.697c-0.878-11.558,2.897-17.84,12.863-24.357
	c4.862-3.179,12.145-7.889,18.254-7.096c7.512,0.976,12.409,11.223,17.074,15.91c5.356,5.381,12.539,10.048,19.798,12.373
	c10.903,3.492,20.868-0.253,31.439-2.52c12.123-2.6,16.321-0.09,25.061,7.837c6.37,5.777,13.713,10.068,22.442,10.703
	c9.533,0.695,19.19-3.775,28.715-1.819c5.098,1.047,10.447,3.774,15.293,5.777C367.524,134.089,386.707,143.633,390.161,158.726z"/>
<path d="M382.234,175.667c15.791-7.449,19.922-29.528,8.509-43.295c-1.342-1.618-2.88-2.764-4.384-4.181
	c-3.812-3.591-3.625-3.832-3.803-8.995c-0.207-5.997-1.495-12.086-4.186-17.476c-5.372-10.758-15.687-17.6-27.646-16.928
	c-8.939-7.207-17.714-15.156-29.149-18.043c-5.194-1.311-10.812-1.711-16.078-0.588c-2.465,0.526-5.215,2.45-7.621,2.668
	c-3.601,0.325-6.956-2.391-10.242-3.525c-2.115-0.73-4.299-1.267-6.512-1.665c7.377-13.251,15.328-28.572,16.613-43.372
	c1.333-15.351-10.611-22.037-24.591-19.868c-14.869,2.307-24.625,14.478-24.537,29.49c0.08,13.732,7.818,24.324,16.969,33.55
	c-2.544,0.387-5.052,0.968-7.479,1.753c-5.154,1.667-9.444,5.641-14.518,4.399c-5.887-1.441-10.814-4.367-17.121-4.821
	c-10.623-0.765-20.057,2.633-28.153,9.358c-3.443,2.86-6.042,4.735-10.251,6.226c-2.76,0.977-5.586,1.57-8.327,2.676
	c-4.731,1.908-9.143,4.343-13.09,7.589c-8.082,6.648-13.725,16.568-13.745,27.222c-0.005,2.643,0.637,4.913,0.952,7.504
	c0.495,4.076,0.2,5.94-1.47,9.809c-2.157,4.998-3.43,9.318-1.099,14.586c1.069,2.416,2.56,4.359,4.33,5.91
	c-18.154,21.986-30.713,48.855-39.375,75.79c-9.278,28.852-18.347,65.353-5.479,94.401c11.512,25.988,38.513,38.87,65.229,27.459
	c6.634-2.833,12.605-6.725,18.223-11.226c4.445-3.562,14.114-16.139,20.75-13.751c6.214,2.237,5.645,14.538,5.648,19.543
	c0.006,10.237-1.556,20.354-3.47,30.385c-5.662,29.664-14.351,60.921-3.509,90.559c9.758,26.673,33.594,40.658,61.104,42.831
	c29.819,2.356,61.677-6.854,83.267-27.99c22.846-22.367,34.782-54.227,41.076-84.954
	C413.862,326.452,410.257,244.63,382.234,175.667z M261.389,40.348c-3.332-10.783-0.832-24.346,11.507-27.744
	c6.619-1.823,13.546-1.42,13.912,6.933c0.197,4.505-2.329,9.745-3.877,13.907c-3.231,8.687-7.606,16.821-11.856,25.025
	C266.988,52.881,263.414,46.901,261.389,40.348z M164.57,139.474c0.38-0.878,0.811-1.722,1.174-2.486
	c1.449-3.041,2.643-5.956,2.309-9.383c-0.321-3.297-1.651-6.418-1.6-9.766c0.093-6.027,3.4-11.612,7.761-15.571
	c7.43-6.744,17.146-6.506,25.405-11.222c8.73-4.985,12.688-12.554,24.008-12.37c9.241,0.15,17.103,7.932,26.257,5.294
	c5.208-1.501,9.176-5.322,14.59-6.651c5.442-1.336,11.3-0.99,16.638,0.641c4.728,1.445,8.517,4.919,13.506,5.397
	c3.991,0.383,6.553-1.229,10.06-2.89c14.219-6.731,28.581,2.629,39.518,11.42c0.247,0.199,0.503,0.352,0.76,0.496
	c0.716,1.381,2.127,2.438,4.285,2.56c13.27,0.75,21.563,11.489,21.705,24.252c0.09,8.032-0.256,12.035,6.417,17.25
	c16.155,12.627,2.365,38.67-16.498,27.5c-5.309-3.143-6.7-10.678-13.697-11.071c-3.457-0.194-6.854,2.05-10.272,2.5
	c-5.506,0.724-11.301-0.617-15.738-3.949c-5.62-4.221-8.259-10.581-16.291-10.671c-4.278-0.048-8.412,2.128-12.484,3.106
	c-6.262,1.505-12.821,1.412-19.033-0.322c-7.193-2.007-13.444-7.775-21.205-7.328c-8.563,0.494-13.559,8.339-21.451,10.635
	c-5.24,1.524-10.738,1.311-15.729-0.867c-3.291-1.436-5.806-4.22-9.156-5.466c-7.83-2.911-17.447,3.808-24.976,5.672
	c-3.381,0.837-7.032,2.424-10.513,2.674c-2.808,0.202-6.628-2.42-6.722-5.43C163.559,142.14,164.009,140.77,164.57,139.474z
	 M162.629,159.461c3.584,1.09,7.533,1.33,11.371,0.913c5.695-0.619,11.172-2.461,16.431-4.654c2.632-1.098,6.573-4.077,9.282-4.526
	c4.834-0.8,6.71,2.328,10.493,4.328c8.451,4.468,18.981,5.09,27.792,1.375c4.452-1.877,9.831-8.3,14.496-8.811
	c4.741-0.519,12.875,5.85,17.571,7.371c5.27,1.707,11.066,2.524,16.605,2.377c5.632-0.15,11.52-3.303,16.793-3.322
	c5.028-0.018,8.566,6.398,12.695,8.99c4.633,2.907,10.068,4.721,15.523,5.127c2.367,0.176,4.628,0.101,6.972-0.27
	c1.68-0.266,6.061-2.424,7.482-2.194c0.111,0.018,3.891,4.327,5.701,5.771c4.787,3.815,10.861,5.913,17,6.215
	c1.457,5.165,2.881,10.323,4.282,15.482c-15.863-5.609-32.352-9.02-49.009-11.928c-21.478-3.749-43.139-6.761-64.926-7.908
	c-38.935-2.051-79.433,1.77-114.382,19.76C150.309,182.042,156.351,170.75,162.629,159.461z M142.256,198.988
	c35.013-18.663,78.118-21.826,116.929-19.577c20.673,1.198,41.205,4.097,61.58,7.721c18.44,3.28,36.876,6.978,54.319,13.795
	c2.557,9.703,4.926,19.428,7.009,29.222c-43.834-16.61-90.41-25.3-137.362-24.898c-39.499,0.338-81.837,4.757-115.387,26.479
	C132.989,220.482,137.367,209.622,142.256,198.988z M125.197,245.924c0.679-2.643,1.418-5.252,2.183-7.848
	c34.454-23.685,84.498-26.404,124.305-25.856c45.174,0.622,89.916,9.359,131.992,25.713c1.949,10.026,3.564,20.139,4.659,30.409
	c1.135,10.64,1.89,21.301,2.296,31.969c-17.748-10.58-38.932-16.266-58.745-20.566c-23.958-5.2-48.376-8.695-72.843-10.268
	c-48.149-3.096-96.072,2.247-141.082,19.758C118.485,273.943,122.016,258.299,125.197,245.924z M289.387,496.343
	c-27.548,1.685-54.582-8.268-62.816-36.873c-1.724-5.988-2.622-12-2.956-18.023c42.238,17.938,93.843,22.875,138.607,11.706
	C346.03,479.816,320.569,494.436,289.387,496.343z M367.299,443.971c-24.67,5.103-48.715,8.439-74.183,6.85
	c-23.848-1.488-47.095-6.918-69.664-14.52c-0.042-13.142,2.39-26.319,5.014-39.399c49.319,13.924,100.627,19.849,151.698,12.673
	C376.987,421.478,372.821,433.068,367.299,443.971z M388.554,362.165c-1.473,13.398-3.505,27.055-6.64,40.432
	c-51.023,4.7-102.794,3.308-152.715-9.347c1.357-6.713,2.708-13.398,3.742-20.034c1.642-10.544,4.543-31.269-0.256-45.334
	c53.928-2.572,106.927,7.454,156.361,29.428C388.888,358.929,388.732,360.548,388.554,362.165z M389.719,349.645
	c-49.346-23.033-104.76-31.95-158.806-25.948c-3.332-6.385-8.921-10.57-17.982-10.282c-12.48,0.396-20.439,11.95-29.362,19.046
	c-12.268,9.756-28.631,16.068-43.343,7.607c-16.806-9.666-22.132-27.255-22.328-45.967c43.788-16.222,91.259-20.99,137.678-18.159
	c46.797,2.854,93.616,11.392,135.295,33.182C391.119,322.635,390.763,336.152,389.719,349.645z"/>
<path d="M175.482,239.756c-2.627,1.094-5.381,2.105-8.157,3.115c1.65-2.751,3.3-5.503,4.953-8.25
	c0.993-1.65-1.489-3.705-2.742-2.116c-2.165,2.744-4.277,5.537-6.356,8.356c-0.413-2.122-0.833-4.242-1.293-6.359
	c-0.575-2.648-4.594-1.981-4.632,0.627c-0.027,1.864,0.03,3.729,0.149,5.594c-1.905-0.875-3.863-1.553-5.869-1.68
	c-1.742-0.11-2.273,2.044-1.315,3.174c1.658,1.955,4.051,3.395,6.484,4.721c-3.636,1.528-7.155,3.23-10.334,5.344
	c-1.715,1.14-0.583,3.497,1.345,3.191c2.097-0.333,4.18-0.815,6.256-1.378c-1.776,2.724-3.509,5.476-5.172,8.265
	c-1.905,3.194,3.031,6.06,4.973,2.907c1.902-3.088,3.771-6.198,5.65-9.302c0.239,1.357,0.468,2.72,0.717,4.066
	c0.811,4.392,7.983,2.559,6.778-1.869c-0.543-1.997-1.005-4.006-1.446-6.019c2.835,1.835,5.662,3.686,8.568,5.398
	c3.594,2.117,6.445-3.129,3.205-5.482c-1.892-1.374-3.869-2.63-5.885-3.826c1.982-0.678,3.962-1.318,5.944-1.873
	C181.645,245.143,179.46,238.1,175.482,239.756z"/>
<path d="M232.837,246.309c-1.684-1.622-3.47-3.138-5.302-4.6c2.056-0.399,4.106-0.759,6.145-1.036
	c4.468-0.607,3.275-7.883-0.894-6.791c-2.753,0.721-5.619,1.344-8.508,1.962c2.013-2.498,4.026-4.996,6.042-7.49
	c1.21-1.497-0.964-3.875-2.424-2.473c-2.522,2.42-4.999,4.895-7.446,7.401c-0.117-2.158-0.241-4.317-0.405-6.476
	c-0.205-2.702-4.278-2.595-4.675-0.017c-0.283,1.842-0.484,3.698-0.623,5.561c-1.766-1.129-3.612-2.07-5.581-2.472
	c-1.71-0.349-2.533,1.711-1.74,2.963c1.373,2.165,3.545,3.921,5.771,5.569c-3.812,1.012-7.531,2.214-10.972,3.87
	c-1.855,0.893-1.06,3.384,0.893,3.346c2.123-0.041,4.253-0.231,6.386-0.503c-2.134,2.454-4.229,4.94-6.261,7.474
	c-2.327,2.902,2.168,6.42,4.525,3.564c2.309-2.797,4.589-5.619,6.877-8.435c0.05,1.377,0.089,2.759,0.15,4.126
	c0.199,4.462,7.554,3.634,6.971-0.917c-0.263-2.052-0.444-4.107-0.603-6.161c2.555,2.208,5.101,4.431,7.743,6.527
	C232.177,253.889,235.722,249.086,232.837,246.309z"/>
<path d="M268.41,250.16c3.274-1.558,6.534-3.153,9.798-4.738c-0.537,1.269-1.085,2.538-1.608,3.803
	c-1.705,4.128,5.31,6.486,6.706,2.115c0.629-1.971,1.333-3.909,2.057-5.839c1.382,3.081,2.75,6.172,4.259,9.188
	c1.867,3.731,7.111,0.876,5.669-2.861c-0.841-2.182-1.819-4.311-2.861-6.41c2.032,0.508,4.043,1.047,6.008,1.658
	c4.306,1.338,6.3-5.761,2.06-6.533c-2.799-0.51-5.661-1.157-8.54-1.818c2.88-1.413,5.761-2.826,8.641-4.234
	c1.73-0.845,0.764-3.919-1.152-3.266c-3.308,1.127-6.599,2.324-9.876,3.56c0.806-2.005,1.606-4.014,2.37-6.041
	c0.956-2.535-2.78-4.16-4.229-1.991c-1.035,1.55-2.001,3.147-2.915,4.777c-1.123-1.77-2.398-3.403-4.014-4.6
	c-1.403-1.039-3.019,0.48-2.829,1.95c0.329,2.542,1.556,5.052,2.877,7.487c-3.883-0.693-7.761-1.177-11.579-1.13
	c-2.059,0.025-2.391,2.619-0.605,3.41c1.941,0.86,3.952,1.588,6,2.243c-2.972,1.322-5.921,2.69-8.833,4.127
	C262.48,246.663,265.066,251.751,268.41,250.16z"/>
<path d="M326.842,259.76c3.546-0.762,7.085-1.562,10.626-2.351c-0.815,1.111-1.641,2.219-2.441,3.33
	c-2.611,3.623,3.672,7.536,6.038,3.604c1.067-1.773,2.199-3.497,3.348-5.208c0.635,3.317,1.253,6.64,2.026,9.922
	c0.956,4.06,6.717,2.492,6.176-1.477c-0.316-2.317-0.776-4.614-1.306-6.897c1.86,0.963,3.692,1.951,5.463,2.998
	c3.881,2.295,7.458-4.153,3.511-5.882c-2.607-1.141-5.241-2.431-7.891-3.738c3.128-0.711,6.257-1.422,9.384-2.128
	c1.878-0.424,1.647-3.637-0.368-3.444c-3.479,0.334-6.957,0.74-10.431,1.187c1.247-1.766,2.488-3.535,3.699-5.331
	c1.515-2.247-1.746-4.689-3.656-2.912c-1.365,1.269-2.673,2.6-3.938,3.976c-0.685-1.981-1.549-3.864-2.845-5.401
	c-1.125-1.335-3.049-0.229-3.202,1.245c-0.266,2.55,0.349,5.274,1.073,7.948c-3.618-1.57-7.281-2.935-11.007-3.769
	c-2.009-0.45-2.93,1.997-1.375,3.179c1.69,1.284,3.48,2.456,5.322,3.566c-3.196,0.601-6.382,1.252-9.547,1.98
	C321.878,254.991,323.222,260.538,326.842,259.76z"/>
<path d="M340.387,379.731c3.546-0.762,7.085-1.562,10.626-2.351c-0.814,1.111-1.641,2.219-2.441,3.33
	c-2.611,3.623,3.672,7.536,6.037,3.604c1.067-1.773,2.199-3.497,3.348-5.207c0.635,3.317,1.253,6.639,2.026,9.922
	c0.956,4.06,6.717,2.492,6.176-1.477c-0.316-2.317-0.776-4.614-1.306-6.897c1.86,0.963,3.692,1.951,5.463,2.998
	c3.881,2.295,7.458-4.153,3.511-5.882c-2.607-1.141-5.242-2.431-7.891-3.738c3.128-0.711,6.257-1.422,9.384-2.128
	c1.878-0.424,1.647-3.638-0.368-3.444c-3.479,0.334-6.957,0.74-10.431,1.187c1.247-1.766,2.488-3.535,3.699-5.331
	c1.515-2.247-1.746-4.689-3.656-2.912c-1.365,1.269-2.673,2.6-3.938,3.976c-0.685-1.981-1.549-3.864-2.845-5.401
	c-1.126-1.334-3.049-0.229-3.202,1.245c-0.266,2.55,0.349,5.274,1.073,7.948c-3.618-1.57-7.281-2.935-11.007-3.769
	c-2.009-0.45-2.93,1.997-1.375,3.179c1.69,1.284,3.479,2.456,5.322,3.566c-3.196,0.601-6.382,1.252-9.547,1.98
	C335.423,374.961,336.767,380.509,340.387,379.731z"/>
<path d="M258.186,363.454c-3.915,0.479-7.764,1.158-11.399,2.326c-1.961,0.63-1.514,3.206,0.425,3.437
	c2.108,0.251,4.244,0.355,6.394,0.378c-2.451,2.137-4.868,4.312-7.228,6.543c-2.703,2.555,1.266,6.656,3.993,4.152
	c2.671-2.453,5.317-4.936,7.971-7.41c-0.14,1.37-0.291,2.745-0.418,4.108c-0.416,4.446,6.983,4.637,7.031,0.049
	c0.022-2.069,0.124-4.129,0.249-6.186c2.227,2.538,4.444,5.09,6.773,7.528c2.882,3.016,7.054-1.255,4.577-4.402
	c-1.446-1.838-3.006-3.585-4.62-5.285c2.092-0.112,4.171-0.188,6.229-0.183c4.509,0.012,4.326-7.359,0.047-6.85
	c-2.826,0.336-5.751,0.559-8.697,0.775c2.337-2.197,4.674-4.396,7.013-6.589c1.404-1.317-0.423-3.971-2.062-2.783
	c-2.831,2.051-5.623,4.162-8.392,6.308c0.181-2.154,0.354-4.309,0.488-6.471c0.168-2.705-3.881-3.158-4.628-0.659
	c-0.534,1.786-0.987,3.596-1.381,5.423c-1.594-1.361-3.293-2.547-5.189-3.215c-1.646-0.581-2.744,1.347-2.13,2.696
	C254.297,359.478,256.207,361.515,258.186,363.454z"/>
<path d="M294.7,377.784c3.067-1.936,6.114-3.906,9.167-5.866c-0.382,1.323-0.777,2.649-1.146,3.967
	c-1.204,4.301,6.042,5.811,6.909,1.305c0.391-2.032,0.86-4.04,1.35-6.042c1.738,2.896,3.462,5.802,5.318,8.618
	c2.296,3.483,7.164,0.026,5.29-3.513c-1.094-2.067-2.317-4.065-3.6-6.026c2.078,0.263,4.138,0.56,6.161,0.934
	c4.434,0.818,5.572-6.467,1.271-6.731c-2.84-0.174-5.758-0.477-8.695-0.792c2.692-1.744,5.384-3.489,8.078-5.229
	c1.617-1.044,0.294-3.982-1.531-3.107c-3.151,1.512-6.277,3.09-9.384,4.706c0.563-2.087,1.119-4.176,1.637-6.279
	c0.649-2.631-3.254-3.801-4.435-1.475c-0.844,1.662-1.614,3.362-2.328,5.089c-1.325-1.624-2.785-3.094-4.531-4.091
	c-1.516-0.866-2.941,0.835-2.578,2.272c0.628,2.486,2.144,4.832,3.745,7.093c-3.938-0.228-7.846-0.248-11.631,0.251
	c-2.042,0.269-2.063,2.884-0.196,3.458c2.029,0.624,4.112,1.108,6.224,1.515c-2.794,1.665-5.56,3.373-8.282,5.146
	C288.398,375.016,291.569,379.761,294.7,377.784z"/>
<g>
</g>
<g>
</g>
<g>
</g>
<g>
</g>
<g>
</g>
<g>
</g>
<g>
</g>
<g>
</g>
<g>
</g>
<g>
</g>
<g>
</g>
<g>
</g>
<g>
</g>
<g>
</g>
<g>
</g>
</svg>
